<?xml version="1.0" encoding="UTF-8" standalone="no"?>
<!-- Created with Inkscape (http://www.inkscape.org/) -->

<svg
   width="210mm"
   height="297mm"
   viewBox="0 0 210 297"
   version="1.1"
   id="svg1"
   inkscape:version="1.3.2 (091e20e, 2023-11-25, custom)"
   sodipodi:docname="Елка.svg"
   xmlns:inkscape="http://www.inkscape.org/namespaces/inkscape"
   xmlns:sodipodi="http://sodipodi.sourceforge.net/DTD/sodipodi-0.dtd"
   xmlns="http://www.w3.org/2000/svg"
   xmlns:svg="http://www.w3.org/2000/svg">
  <sodipodi:namedview
     id="namedview1"
     pagecolor="#ffffff"
     bordercolor="#000000"
     borderopacity="0.25"
     inkscape:showpageshadow="2"
     inkscape:pageopacity="0.0"
     inkscape:pagecheckerboard="0"
     inkscape:deskcolor="#d1d1d1"
     inkscape:document-units="mm"
     inkscape:zoom="1.4235831"
     inkscape:cx="404.61285"
     inkscape:cy="398.642"
     inkscape:window-width="1920"
     inkscape:window-height="1013"
     inkscape:window-x="-9"
     inkscape:window-y="-9"
     inkscape:window-maximized="1"
     inkscape:current-layer="layer1" />
  <defs
     id="defs1" />
  <g
     inkscape:label="Слой 1"
     inkscape:groupmode="layer"
     id="layer1">
    <path
       style="fill:#0b9c05;stroke-width:0.317888;fill-opacity:1"
       d="m 110.93951,70.254066 -36.900561,53.989094 19.782133,0.26839 c -37.36859,56.05431 -33.231574,53.7207 -33.231574,53.7207 41.147442,-0.95006 40.032292,0.43347 40.032292,0.43347 -0.41987,32.30249 0.69528,31.35241 0.69528,31.35241 l 21.58501,-0.10333 v -31.68255 c 36.23991,-0.66089 36.56346,-0.20663 36.56346,-0.20663 -32.08933,-54.21592 -31.90347,-54.31923 -31.90347,-54.31923 l 17.72415,-1e-5 C 109.92069,68.209635 110.93951,70.254066 110.93951,70.254066 Z"
       id="path1"
       sodipodi:nodetypes="cccccccccccc" />
    <path
       style="fill:#000000;stroke-width:0.264583"
       d="M 110.02753,72.856068 Z"
       id="path2" />
    <path
       style="fill:#000000;stroke-width:0.264583"
       d="M 117.83354,112.62954 Z"
       id="path3" />
    <path
       sodipodi:type="star"
       style="fill:#f4f822;fill-opacity:1;stroke-width:0.264583"
       id="path4"
       inkscape:flatsided="false"
       sodipodi:sides="5"
       sodipodi:cx="110.95682"
       sodipodi:cy="67.094498"
       sodipodi:r1="9.0327425"
       sodipodi:r2="4.5163713"
       sodipodi:arg1="0.93141042"
       sodipodi:arg2="1.559729"
       inkscape:rounded="0"
       inkscape:randomized="0"
       d="m 116.34668,74.342933 -5.33988,-2.732341 -5.2781,2.849859 0.9485,-5.922867 -4.3414,-4.139112 5.92609,-0.928192 2.59496,-5.407972 2.71402,5.349213 5.94518,0.796803 -4.24873,4.234187 z"
       inkscape:transform-center-x="0.030892769"
       inkscape:transform-center-y="-0.83311865"
       transform="translate(-0.37171464,0.37171464)" />
    <ellipse
       style="fill:#fafa18;fill-opacity:1;stroke-width:0.175224"
       id="path6"
       cx="96.088234"
       cy="108.44775"
       rx="2.6020024"
       ry="2.3232164" />
    <ellipse
       style="fill:#f8452b;fill-opacity:1;stroke-width:0.133534"
       id="path7"
       cx="114.67397"
       cy="97.668022"
       rx="2.4161451"
       ry="2.509074" />
    <ellipse
       style="fill:#f82262;fill-opacity:1;stroke-width:0.175631"
       id="path8"
       cx="114.67397"
       cy="145.99091"
       rx="3.1595743"
       ry="2.8807883" />
    <ellipse
       style="fill:#22f8f3;fill-opacity:1;stroke-width:0.163943"
       id="path9"
       cx="132.23749"
       cy="154.72623"
       rx="2.3232164"
       ry="3.2525029" />
    <ellipse
       style="fill:#f9b53c;fill-opacity:1;stroke-width:0.187847"
       id="path10"
       cx="91.441803"
       cy="154.35452"
       rx="2.9737175"
       ry="2.8807883" />
    <ellipse
       style="fill:#2227f8;fill-opacity:1;stroke-width:0.169694"
       id="path11"
       cx="123.31633"
       cy="128.05569"
       rx="2.694931"
       ry="2.6020026" />
    <ellipse
       style="fill:#22f830;fill-opacity:1;stroke-width:0.191242"
       id="path12"
       cx="107.89017"
       cy="116.99718"
       rx="2.5090737"
       ry="2.3232167" />
    <path
       sodipodi:type="star"
       style="fill:#fb4331;fill-opacity:1;stroke-width:0.264583"
       id="path13"
       inkscape:flatsided="false"
       sodipodi:sides="5"
       sodipodi:cx="98.690239"
       sodipodi:cy="130.84355"
       sodipodi:r1="4.1267023"
       sodipodi:r2="2.0633512"
       sodipodi:arg1="0.94531129"
       sodipodi:arg2="1.5736298"
       inkscape:rounded="0"
       inkscape:randomized="0"
       d="m 101.10638,134.18898 -2.421987,-1.28209 -2.429219,1.26835 0.470903,-2.69964 -1.956936,-1.91839 2.713025,-0.38637 1.219766,-2.45397 1.205839,2.46084 2.710789,0.40175 -1.96777,1.90726 z"
       inkscape:transform-center-x="-0.0036120787"
       inkscape:transform-center-y="-0.39062859"
       transform="translate(13.195869,32.896747)" />
    <path
       sodipodi:type="star"
       style="fill:#f322f8;fill-opacity:1;stroke-width:0.264583"
       id="path14"
       inkscape:flatsided="false"
       sodipodi:sides="5"
       sodipodi:cx="111.14268"
       sodipodi:cy="139.02129"
       sodipodi:r1="4.1267023"
       sodipodi:r2="2.0633512"
       sodipodi:arg1="0.94531129"
       sodipodi:arg2="1.5736298"
       inkscape:rounded="0"
       inkscape:randomized="0"
       d="m 113.55882,142.36672 -2.42199,-1.28209 -2.42922,1.26834 0.4709,-2.69964 -1.95693,-1.91838 2.71302,-0.38638 1.21977,-2.45397 1.20584,2.46084 2.71079,0.40175 -1.96777,1.90726 z"
       inkscape:transform-center-x="-0.0036119218"
       inkscape:transform-center-y="-0.39062869"
       transform="translate(-6.133291,-4.0888611)" />
    <path
       sodipodi:type="star"
       style="fill:#22f8cf;fill-opacity:1;stroke-width:0.264583"
       id="path15"
       inkscape:flatsided="false"
       sodipodi:sides="5"
       sodipodi:cx="123.40926"
       sodipodi:cy="110.02754"
       sodipodi:r1="4.3863902"
       sodipodi:r2="2.1931951"
       sodipodi:arg1="0.93576959"
       sodipodi:arg2="1.5640881"
       inkscape:rounded="0"
       inkscape:randomized="0"
       d="m 126.01127,113.55883 -2.58729,-1.33814 -2.56911,1.37273 0.47313,-2.87417 -2.09944,-2.01916 2.8797,-0.43819 1.27158,-2.62065 1.30662,2.60335 2.88532,0.39952 -2.07216,2.04715 z"
       inkscape:transform-center-x="0.0090942509"
       inkscape:transform-center-y="-0.41020729" />
  </g>
</svg>
