<svg width="124" height="118" viewBox="0 0 124 118" fill="none" xmlns="http://www.w3.org/2000/svg">
<g clip-path="url(#clip0_18_4)">
<path d="M98.4492 92.0953C93.8234 81.3324 82.707 73.75 69.75 73.75H54.25C41.293 73.75 30.1766 81.3324 25.5508 92.0953C16.9289 83.4758 11.625 71.8371 11.625 59C11.625 32.5191 34.1727 11.0625 62 11.0625C89.8273 11.0625 112.375 32.5191 112.375 59C112.375 71.8371 107.071 83.4758 98.4492 92.0953ZM88.7375 99.6316C80.9875 104.264 71.8328 106.938 62 106.938C52.1672 106.938 43.0125 104.264 35.2383 99.6316C37.0063 91.1734 44.8531 84.8125 54.25 84.8125H69.75C79.1469 84.8125 86.9937 91.1734 88.7617 99.6316H88.7375ZM62 118C78.4434 118 94.2134 111.784 105.841 100.719C117.468 89.6547 124 74.6478 124 59C124 43.3522 117.468 28.3453 105.841 17.2807C94.2134 6.21605 78.4434 0 62 0C45.5566 0 29.7866 6.21605 18.1594 17.2807C6.53213 28.3453 0 43.3522 0 59C0 74.6478 6.53213 89.6547 18.1594 100.719C29.7866 111.784 45.5566 118 62 118ZM62 55.3125C59.4307 55.3125 56.9667 54.3412 55.1499 52.6124C53.3331 50.8835 52.3125 48.5387 52.3125 46.0938C52.3125 43.6488 53.3331 41.304 55.1499 39.5751C56.9667 37.8463 59.4307 36.875 62 36.875C64.5693 36.875 67.0333 37.8463 68.8501 39.5751C70.6669 41.304 71.6875 43.6488 71.6875 46.0938C71.6875 48.5387 70.6669 50.8835 68.8501 52.6124C67.0333 54.3412 64.5693 55.3125 62 55.3125ZM40.6875 46.0938C40.6875 51.4727 42.9329 56.6313 46.9298 60.4348C50.9267 64.2382 56.3476 66.375 62 66.375C67.6524 66.375 73.0733 64.2382 77.0702 60.4348C81.0671 56.6313 83.3125 51.4727 83.3125 46.0938C83.3125 40.7148 81.0671 35.5562 77.0702 31.7527C73.0733 27.9493 67.6524 25.8125 62 25.8125C56.3476 25.8125 50.9267 27.9493 46.9298 31.7527C42.9329 35.5562 40.6875 40.7148 40.6875 46.0938Z" fill="#808080" fill-opacity="0.55"/>
</g>
<defs>
<clipPath id="clip0_18_4">
<rect width="124" height="118" fill="white"/>
</clipPath>
</defs>
</svg>
