<svg width="207" height="146" viewBox="0 0 207 146" fill="none" xmlns="http://www.w3.org/2000/svg">
<g clip-path="url(#clip0_2_5)">
<path d="M31.05 10.75C31.05 5.01133 35.6752 0.375 41.4 0.375H51.75C57.4748 0.375 62.1 5.01133 62.1 10.75V62.625V83.375V135.25C62.1 140.989 57.4748 145.625 51.75 145.625H41.4C35.6752 145.625 31.05 140.989 31.05 135.25V114.5H20.7C14.9752 114.5 10.35 109.864 10.35 104.125V83.375C4.62516 83.375 0 78.7387 0 73C0 67.2613 4.62516 62.625 10.35 62.625V41.875C10.35 36.1363 14.9752 31.5 20.7 31.5H31.05V10.75ZM175.95 10.75V31.5H186.3C192.025 31.5 196.65 36.1363 196.65 41.875V62.625C202.375 62.625 207 67.2613 207 73C207 78.7387 202.375 83.375 196.65 83.375V104.125C196.65 109.864 192.025 114.5 186.3 114.5H175.95V135.25C175.95 140.989 171.325 145.625 165.6 145.625H155.25C149.525 145.625 144.9 140.989 144.9 135.25V83.375V62.625V10.75C144.9 5.01133 149.525 0.375 155.25 0.375H165.6C171.325 0.375 175.95 5.01133 175.95 10.75ZM134.55 62.625V83.375H72.45V62.625H134.55Z" fill="#6600FF"/>
</g>
<defs>
<clipPath id="clip0_2_5">
<rect width="207" height="146" fill="white"/>
</clipPath>
</defs>
</svg>
