<svg width="15" height="12" viewBox="0 0 15 12" fill="none" xmlns="http://www.w3.org/2000/svg">
<path d="M14.707 4.271C14.8242 4.18311 15 4.271 15 4.41748V10.394C15 11.1851 14.3555 11.8003 13.5938 11.8003H1.40625C0.615234 11.8003 0 11.1851 0 10.394V4.41748C0 4.271 0.146484 4.18311 0.263672 4.271C0.9375 4.79834 1.78711 5.44287 4.77539 7.61084C5.39062 8.05029 6.44531 9.01709 7.5 9.01709C8.52539 9.01709 9.60938 8.05029 10.1953 7.61084C13.1836 5.44287 14.0332 4.79834 14.707 4.271ZM7.5 8.05029C6.79688 8.07959 5.83008 7.20068 5.33203 6.84912C1.43555 4.03662 1.14258 3.77295 0.263672 3.06982C0.0878906 2.95264 0 2.74756 0 2.51318V1.95654C0 1.19482 0.615234 0.550293 1.40625 0.550293H13.5938C14.3555 0.550293 15 1.19482 15 1.95654V2.51318C15 2.74756 14.8828 2.95264 14.707 3.06982C13.8281 3.77295 13.5352 4.03662 9.63867 6.84912C9.14062 7.20068 8.17383 8.07959 7.5 8.05029Z" fill="#6600FF"/>
</svg>
