<svg width="16" height="16" viewBox="0 0 16 16" fill="none" xmlns="http://www.w3.org/2000/svg">
<path d="M14.3926 15.4434C14.3047 15.7656 14.041 16 13.7187 16C6.18945 16 0.125 9.90625 0.125 2.40625C0.125 2.05469 0.330078 1.79102 0.652344 1.70312L3.69922 1C4.02148 0.941406 4.37305 1.08789 4.51953 1.41016L5.92578 4.69141C6.04297 4.98437 5.95508 5.30664 5.7207 5.51172L3.93359 6.97656C5.01758 9.26172 6.89258 11.1074 9.11914 12.1621L10.584 10.375C10.7891 10.1406 11.1113 10.0527 11.4043 10.1699L14.6855 11.5762C15.0078 11.7227 15.1836 12.0742 15.0957 12.3965L14.3926 15.4434Z" fill="#6600FF"/>
</svg>
