<svg width="103" height="141" viewBox="0 0 103 141" fill="none" xmlns="http://www.w3.org/2000/svg">
<g clip-path="url(#clip0_18_2)">
<path d="M51.4996 0C47.4302 0 44.1425 3.93809 44.1425 8.8125V14.1C27.359 18.1758 14.7139 35.966 14.7139 57.2812V64.2762C14.7139 76.7789 11.1503 88.9236 4.64382 98.6725L1.21815 103.822C-0.115336 105.805 -0.368237 108.531 0.551405 110.817C1.47105 113.103 3.4023 114.562 5.51748 114.562H97.4818C99.5969 114.562 101.528 113.103 102.448 110.817C103.367 108.531 103.115 105.805 101.781 103.822L98.3554 98.7C91.8489 88.9236 88.2853 76.7789 88.2853 64.2762V57.2812C88.2853 35.966 75.6402 18.1758 58.8568 14.1V8.8125C58.8568 3.93809 55.569 0 51.4996 0ZM51.4996 26.4375C65.7311 26.4375 77.2496 40.2346 77.2496 57.2812V64.2762C77.2496 77.4674 80.4454 90.3281 86.3771 101.344H16.6222C22.5539 90.3281 25.7496 77.4674 25.7496 64.2762V57.2812C25.7496 40.2346 37.2681 26.4375 51.4996 26.4375ZM66.2139 123.375H51.4996H36.7853C36.7853 128.057 38.3257 132.546 41.0847 135.85C43.8436 139.155 47.5911 141 51.4996 141C55.4081 141 59.1556 139.155 61.9146 135.85C64.6735 132.546 66.2139 128.057 66.2139 123.375Z" fill="#808080" fill-opacity="0.55"/>
</g>
<defs>
<clipPath id="clip0_18_2">
<rect width="103" height="141" fill="white"/>
</clipPath>
</defs>
</svg>
